<svg xmlns="http://www.w3.org/2000/svg" xmlns:xlink="http://www.w3.org/1999/xlink" viewBox="0 0 282.771 60.642">
  <defs>
    <style>
      .cls-1 {
        fill: url(#linear-gradient);
      }

      .cls-2 {
        fill: url(#linear-gradient-3);
      }
    </style>
    <linearGradient id="linear-gradient" x1="0.5" x2="0.5" y2="1" gradientUnits="objectBoundingBox">
      <stop offset="0" stop-color="#d800ff"/>
      <stop offset="1" stop-color="#00f5ff"/>
    </linearGradient>
    <linearGradient id="linear-gradient-3" x1="0.5" x2="0.5" y2="1" gradientUnits="objectBoundingBox">
      <stop offset="0" stop-color="#d004fa"/>
      <stop offset="1" stop-color="#00ebff"/>
    </linearGradient>
  </defs>
  <g id="Group_2" data-name="Group 2" transform="translate(-8 -23)">
    <g id="volume-control" transform="translate(236.106 27)">
      <g id="Group_1" data-name="Group 1" transform="translate(5.743 0)">
        <path id="Path_1" data-name="Path 1" class="cls-1" d="M38.107.2a1.867,1.867,0,0,0-1.949.16L15.785,15.308a1.86,1.86,0,0,0-1.211-.447H7.611a1.868,1.868,0,0,0-1.868,1.868V33.91a1.868,1.868,0,0,0,1.868,1.868h6.963a1.86,1.86,0,0,0,1.211-.447L36.158,50.277a1.867,1.867,0,0,0,2.972-1.506V1.867A1.868,1.868,0,0,0,38.107.2Zm-25.4,31.841H9.478V18.6h3.228V32.042Zm3.735-.862V19.458l18.953-13.9V45.085Z" transform="translate(-5.743 0)"/>
        <path id="Path_2" data-name="Path 2" class="cls-1" d="M267.346,72.316a1.868,1.868,0,0,0-2.17,3.04,13.727,13.727,0,0,1,0,22.358,1.868,1.868,0,1,0,2.17,3.04,17.462,17.462,0,0,0,0-28.439Z" transform="translate(-225.75 -61.216)"/>
      </g>
    </g>
    <g id="Untitled-2" transform="translate(-35.361 4.14)">
      <path id="Path_3" data-name="Path 3" class="cls-2" d="M73.07,25.83a43.117,43.117,0,0,0-5.04,1.25,49.445,49.445,0,0,0-17.11,9.08,22.093,22.093,0,0,0-3.65,3.71,11.543,11.543,0,0,0-2.12,3.97,6.5,6.5,0,0,0-.21,2.89,7.852,7.852,0,0,0,.97,2.73,8.811,8.811,0,0,0,1.69,2.23l.11.11c.95.93,1.93,1.82,2.95,2.66,1.38,1.06,2.78,2.09,4.22,3.09.18.13.35.24.51.35.41.3.83.6,1.26.89,1,.72,2,1.44,2.98,2.16s1.94,1.48,2.87,2.27a19.406,19.406,0,0,1,2.66,2.85,10.062,10.062,0,0,1,1.5,3.09,3.856,3.856,0,0,1-1.58,4.38,8.35,8.35,0,0,1-2.18.97,15.093,15.093,0,0,1-4.48.56H58.1c-.81.02-1.62,0-2.43-.05a11.71,11.71,0,0,1-4.23-1.13,4.748,4.748,0,0,1-2.55-3.57,3.045,3.045,0,0,1,.12-1.28,4.639,4.639,0,0,1,.6-1.17,7.35,7.35,0,0,1,3.79-2.74A8.2,8.2,0,0,1,57.99,65a8.91,8.91,0,0,1,3.92,2.39,1.644,1.644,0,0,1,.32.54.512.512,0,0,0,.08.21v.07a.148.148,0,0,1-.01.07.1.1,0,0,1-.04.05.055.055,0,0,0-.05.03c-.05.02-.11.04-.17.07a.162.162,0,0,1-.15.01c-.16-.13-.31-.26-.46-.4-.13-.11-.24-.21-.35-.29a6.826,6.826,0,0,0-3.96-1.45,7.164,7.164,0,0,0-4.15,1.18A6.6,6.6,0,0,0,50.63,70a3.491,3.491,0,0,0-.27,1.02,1.084,1.084,0,0,0,.54,1.1,5.926,5.926,0,0,0,1.8.73,16.2,16.2,0,0,0,3.44.43,22.071,22.071,0,0,0,3.44-.21,12.528,12.528,0,0,0,2.74-.64,7.212,7.212,0,0,0,1.85-1.07,3.252,3.252,0,0,0,1.01-1.77,3.077,3.077,0,0,0-.28-1.99,6.107,6.107,0,0,0-1.26-1.75c-.16-.14-.31-.28-.46-.4a31.813,31.813,0,0,0-2.47-2.18q-1.905-1.4-3.87-2.79L54.21,58.6c-1.52-1.11-3.02-2.25-4.48-3.41a32.067,32.067,0,0,1-2.69-2.52,13.766,13.766,0,0,1-2.93-4.51,9.064,9.064,0,0,1,.81-8.7,22.2,22.2,0,0,1,4.32-4.81,49.23,49.23,0,0,1,8.84-5.88,48.615,48.615,0,0,1,11.31-4.24,42.407,42.407,0,0,1,4.69-.86,28.042,28.042,0,0,1,4.77-.19,18.945,18.945,0,0,1,4.89.86,9.959,9.959,0,0,1,3.54,2.01,7.951,7.951,0,0,1,2.79,6.96,10.929,10.929,0,0,1-.59,2.87,19.068,19.068,0,0,1-1.18,2.66,31.143,31.143,0,0,1-3.36,4.78,62.126,62.126,0,0,1-6.07,6.18,10.167,10.167,0,0,1-2.12,1.5.493.493,0,0,1-.38.01.772.772,0,0,1-.38-.28,1.4,1.4,0,0,1-.28-.54.552.552,0,0,1,.04-.43.383.383,0,0,0,.08-.11,1.117,1.117,0,0,1,.19-.24c.21-.18.43-.36.64-.54.16-.14.33-.3.51-.46a61.531,61.531,0,0,0,6.9-7.17,27.6,27.6,0,0,0,1.99-2.7,19.827,19.827,0,0,0,1.58-2.94,13.2,13.2,0,0,0,1.02-4.19,4.792,4.792,0,0,0-.6-2.94,5.514,5.514,0,0,0-2.22-1.97,11.466,11.466,0,0,0-4.14-1.24c-.79-.07-1.58-.12-2.39-.13-.36-.02-.72-.04-1.07-.05A26.167,26.167,0,0,0,73.07,25.83Z"/>
      <path id="Path_4" data-name="Path 4" class="cls-2" d="M139.39,22.62q-3.54.165-7.14.48c-.21.02-.43.04-.64.05q-5.055.435-10.15,1.05-6.84.81-13.7,1.91c-3.29.5-6.58,1.07-9.87,1.69s-6.57,1.35-9.84,2.18c-1.59.41-3.18.86-4.75,1.34-.32.11-.65.21-.99.32a14.847,14.847,0,0,0-3.22,1.37,6.036,6.036,0,0,0-.86.56,3.335,3.335,0,0,1-.32.24.341.341,0,0,0-.13.28.465.465,0,0,0,.08.28,4.547,4.547,0,0,0,1.42.73.871.871,0,0,0,.19.05l.81.27c.43.14.86.3,1.29.46a.818.818,0,0,1,.56.75.337.337,0,0,1,0,.2.36.36,0,0,1-.11.2,1.2,1.2,0,0,1-.2.11.446.446,0,0,1-.2.05,12.367,12.367,0,0,1-3.87-1.24,2.759,2.759,0,0,1-1.53-2.39,1.514,1.514,0,0,1,.46-1.21A5.4,5.4,0,0,1,78,31.28c.9-.48,1.82-.92,2.77-1.32a23.308,23.308,0,0,1,2.69-.97c.92-.27,1.83-.53,2.74-.78h.05c2.95-.81,5.91-1.49,8.86-2.07q5.985-1.185,11.95-2.12,5.985-.915,11.92-1.56c2.51-.25,5.01-.47,7.52-.67,1.52-.11,3.05-.23,4.59-.38.91-.07,1.83-.12,2.74-.13.39-.02.79-.03,1.18-.03.72-.04,1.43-.06,2.15-.08q3.84-.165,7.68-.3a11.8,11.8,0,0,1,2.15.08,1.042,1.042,0,0,1,.94.91.4.4,0,0,1-.07.2,1.135,1.135,0,0,1-.15.23.224.224,0,0,1-.16.11,12.5,12.5,0,0,0-2.74-.03,16.811,16.811,0,0,1-2.36.05C141.42,22.51,140.41,22.57,139.39,22.62Zm-61.5,51.8h-.13a.968.968,0,0,1-.36-.62.925.925,0,0,1,.15-.7c.11-.18.22-.36.35-.54a.091.091,0,0,0,.03-.05q4.08-5.985,8.27-11.92t8.57-11.74q3.735-4.89,7.57-9.72c.38-.47.74-.93,1.1-1.4,1.2-1.52,2.41-3.03,3.62-4.51l1.5-1.83c.29-.38.59-.74.91-1.1a.8.8,0,0,1,.68-.34.623.623,0,0,1,.52.39,1.766,1.766,0,0,1-.13,1.48,8.587,8.587,0,0,1-.81,1.15c-.38.48-.74.96-1.1,1.42q-2.1,2.685-4.21,5.37-5,6.255-9.92,12.57T84.85,65.11c-1.24,1.7-2.45,3.41-3.65,5.13-.72,1-1.43,2-2.15,3.01-.23.3-.48.61-.75.91a1.274,1.274,0,0,1-.13.19c-.02.02-.04.03-.05.04a.172.172,0,0,1-.08.01h-.08A.108.108,0,0,1,77.89,74.42Z"/>
      <path id="Path_5" data-name="Path 5" class="cls-2" d="M163.45,18.91c.88.04,1.75.09,2.6.16a11.346,11.346,0,0,1,2.31.51,4.348,4.348,0,0,1,1.99,1.26,1.655,1.655,0,0,1,.47,1.69,3.9,3.9,0,0,1-1.06,1.6,19.419,19.419,0,0,1-1.48,1.28c-.21.16-.38.3-.51.4L136.24,51.08l11.87-.83q4.455-6.045,9.32-11.95t10.34-11.55a3.682,3.682,0,0,1,1.09-.97c.37-.2.59-.23.67-.09s-.12.49-.6,1.06c-.27.32-.53.64-.78.97-.29.36-.57.72-.86,1.07q-3.675,4.32-7.13,8.85t-6.73,9.2c-.29.41-.56.82-.83,1.24-.34.48-.67.96-.99,1.42a.95.95,0,0,0,0,1.21.831.831,0,0,1,.11.4c-.02.05-.04.12-.07.19a.339.339,0,0,1-.12.16,6.032,6.032,0,0,1-.99.4,1.415,1.415,0,0,0-.83.62,37.221,37.221,0,0,0-2.85,5.59,16.28,16.28,0,0,0-.81,3.14,2.549,2.549,0,0,0,0,.78v.08a.958.958,0,0,0,.25.59.928.928,0,0,0,.55.29,10.4,10.4,0,0,0,4.91-.58,13.81,13.81,0,0,0,4.26-2.54,15.312,15.312,0,0,0,3.18-3.79c.27-.43.4-.47.4-.13a5.2,5.2,0,0,1-.52,1.73,12.66,12.66,0,0,1-4.74,5.4,13.218,13.218,0,0,1-4.65,1.81,5.818,5.818,0,0,1-1.5.08,3.331,3.331,0,0,1-2.71-1.56,4.8,4.8,0,0,1-.89-2.63,9.686,9.686,0,0,1,.29-2.58,23.207,23.207,0,0,1,1.64-4.22,10.287,10.287,0,0,0,.59-1.37.129.129,0,0,0-.01-.12.634.634,0,0,0-.11-.13.535.535,0,0,0-.09-.07c-.93.04-1.86.08-2.79.13-.98.05-1.96.12-2.93.21-1.86.16-3.7.25-5.51.27a4.565,4.565,0,0,0-2.79,1.05q-6.66,5.19-13.37,10.31-4.515,3.435-9.05,6.82c-1.2.9-2.39,1.79-3.57,2.69-.16.12-.33.24-.51.35a.027.027,0,0,0-.03.03c-.34.18-.64.07-.91-.32a.976.976,0,0,1-.16-.51.661.661,0,0,1,.21-.48c.27-.25.54-.49.81-.73q4.485-3.63,8.97-7.25,6.045-4.89,12.08-9.78c.34-.27.67-.55.99-.86a.075.075,0,0,1,.01-.05.172.172,0,0,0,.01-.08.055.055,0,0,1,.03-.05q.06-.27-.24-.27a3.866,3.866,0,0,1-.48.03,10.932,10.932,0,0,0-1.26.08q-6.84,1.02-13.59,2.55c-.95.23-1.89.51-2.82.83-.16.07-.33.13-.51.19a.986.986,0,0,0-.52.31.833.833,0,0,0-.17.63.161.161,0,0,1-.03.16v.05a.874.874,0,0,1-.64.7,1.04,1.04,0,0,1-.86-.24,2.091,2.091,0,0,1-.75-1.05,1.321,1.321,0,0,1,.43-1.53,5.847,5.847,0,0,1,1.93-.97l.75-.21a35.839,35.839,0,0,1,3.63-.94q2.82-.585,5.64-1.1c1.88-.34,3.77-.63,5.67-.89l1.75-.21c1.56-.21,3.12-.39,4.7-.54a2.706,2.706,0,0,0,1.58-.59c.38-.29.76-.57,1.15-.86,1.06-.81,2.11-1.62,3.17-2.44q11.415-8.76,23.1-17.21c1.92-1.41,3.82-2.84,5.72-4.27a17.7,17.7,0,0,0,3.14-2.98,2.9,2.9,0,0,0,.62-1.13c.04-.27-.16-.49-.59-.66a7.048,7.048,0,0,0-1.57-.39c-.62-.09-1.19-.16-1.72-.2s-.88-.07-1.06-.07a43.049,43.049,0,0,0-9.69.94,93.93,93.93,0,0,0-18.74,5.96A59.593,59.593,0,0,0,128.15,32a28.623,28.623,0,0,0-4.56,3.63,19.294,19.294,0,0,0-1.69,1.93,1.6,1.6,0,0,0-.16.19,4.067,4.067,0,0,0-.51.94,1.406,1.406,0,0,0-.09,1.2,1.511,1.511,0,0,0,.98.58,14.207,14.207,0,0,0,3.84.56c.72,0,1.43-.03,2.15-.08.29-.02.58-.03.89-.03.34-.02.69-.04,1.05-.08.59-.04,1.17-.06,1.75-.08a1.122,1.122,0,0,1,1,.77.483.483,0,0,1-.01.36,1.2,1.2,0,0,1-.51.35,5.77,5.77,0,0,1-1.07.16,5.506,5.506,0,0,1-.81.05,11.919,11.919,0,0,0-1.34.13,13.759,13.759,0,0,1-2.39.11c-.79-.04-1.58-.1-2.36-.19a.761.761,0,0,0-.21-.03,7.112,7.112,0,0,1-2.07-.59,3.689,3.689,0,0,1-1.61-1.26,4.89,4.89,0,0,1-.78-1.88,1.945,1.945,0,0,1,.08-.86,4.69,4.69,0,0,1,1.07-2.09c.61-.72,1.24-1.41,1.91-2.07a30.369,30.369,0,0,1,4.97-3.84,61.448,61.448,0,0,1,6.15-3.4q3.165-1.515,6.5-2.73a91.608,91.608,0,0,1,13.94-3.95c1.54-.32,2.89-.55,4.04-.69s2.47-.22,3.96-.25h.24A7.362,7.362,0,0,0,163.45,18.91Z"/>
      <path id="Path_6" data-name="Path 6" class="cls-2" d="M203.25,33.74a26.592,26.592,0,0,0-4.31,1.44,33.523,33.523,0,0,0-4.04,2.08,60.29,60.29,0,0,0-6.55,4.62,86.987,86.987,0,0,0-6.93,6.23,11.938,11.938,0,0,0-1.85,2.39q-7.65,12.705-16.49,24.68c-.77,1.06-1.57,2.1-2.39,3.14-.13.16-.24.31-.35.46a3,3,0,0,1-.46.48.535.535,0,0,0-.13.13.543.543,0,0,1-.4.11.755.755,0,0,1-.4-.16,1.846,1.846,0,0,1-.51-1.8,5.788,5.788,0,0,1,.54-1.42c.12-.27.26-.54.4-.81q1.02-2.115,2.15-4.19,2.1-3.765,4.51-7.29c1.61-2.35,3.29-4.66,5.02-6.92q3.225-4.215,6.85-8.11a17.512,17.512,0,0,0,2.04-2.79q2.385-4,4.51-8.14.72-1.455,1.32-2.97a18.446,18.446,0,0,0,.91-3.13,5.868,5.868,0,0,0,.11-1.72,1.8,1.8,0,0,0-1.32-1.56,7.648,7.648,0,0,0-3.65-.19,15.677,15.677,0,0,0-3.73,1.1,28.744,28.744,0,0,0-10.93,7.98,26.109,26.109,0,0,0-1.83,2.58,2.5,2.5,0,0,0-.16.24,6.331,6.331,0,0,0-.64,1.37,3.33,3.33,0,0,0-.16,1.15,1.453,1.453,0,0,0,.56,1.02.615.615,0,0,1,.12.19.522.522,0,0,1,.04.21.587.587,0,0,1-.08.38c-.04.07-.08.12-.15.13a.444.444,0,0,1-.23,0,1.45,1.45,0,0,1-.86-.62,4.106,4.106,0,0,1-.59-3.52,7.858,7.858,0,0,1,1.02-2.36,21.466,21.466,0,0,1,3.22-4.06,29.484,29.484,0,0,1,10.02-6.69,15.6,15.6,0,0,1,5.26-1.18,5.068,5.068,0,0,1,5.23,3.97,8.288,8.288,0,0,1-.16,4.08,27.829,27.829,0,0,1-1.03,2.95c-.4.97-.84,1.92-1.3,2.85a7.067,7.067,0,0,0-.4.99.161.161,0,0,0,.03.16c.04.05.07.11.11.16v.03a.091.091,0,0,0,.07.03.22.22,0,0,0,.08-.01.161.161,0,0,0,.07-.04,1.2,1.2,0,0,1,.21-.13q.51-.375.99-.75a62.874,62.874,0,0,1,6.69-4.81,32.471,32.471,0,0,1,7.84-3.63,17.628,17.628,0,0,1,4.89-.81,8.267,8.267,0,0,1,5.8,2.04,6.814,6.814,0,0,1,1.61,2.2,6.452,6.452,0,0,1,.59,2.89,6.81,6.81,0,0,1-.94,3.21,12.663,12.663,0,0,1-2.61,3.17,24.1,24.1,0,0,1-4.78,3.33,57.852,57.852,0,0,1-5.43,2.5c-1.84.73-3.71,1.38-5.61,1.93q-3.63,1.095-7.33,1.91a8.384,8.384,0,0,0-1.34.43.2.2,0,0,1-.08.03.129.129,0,0,0-.07.11.914.914,0,0,0-.01.16.161.161,0,0,0,.03.11,2.727,2.727,0,0,0,.7.48q6.765,3.435,13.24,7.36c1.5.91,3,1.86,4.48,2.85q.78.51,1.56.99a8.753,8.753,0,0,1,.78.58,2.849,2.849,0,0,1,.64.74.91.91,0,0,1,.08.83.653.653,0,0,1-.08.07.654.654,0,0,0-.08.07.228.228,0,0,1-.11-.03c-.04-.02-.06-.04-.08-.05a20.588,20.588,0,0,0-2.08-1.53,11.975,11.975,0,0,0-2.32-1.16,2.849,2.849,0,0,1-.54-.32h-.03a46.673,46.673,0,0,0-4.05-2.48c-1.4-.76-2.8-1.5-4.22-2.22q-.51-.27-1.02-.51c-1.02-.52-2.03-1.05-3.03-1.58a41.635,41.635,0,0,0-4.89-2.26c-.79-.32-1.56-.68-2.31-1.07l-1.02-.48a1.673,1.673,0,0,1-.78-.73.991.991,0,0,1-.08-.86.8.8,0,0,1,.64-.46c.27-.04.54-.07.81-.11a9.769,9.769,0,0,0,1.56-.27c1.33-.34,2.65-.68,3.97-1.02,1.47-.36,2.94-.73,4.4-1.13s2.92-.85,4.35-1.37c1.49-.52,2.96-1.08,4.43-1.69a36.591,36.591,0,0,0,6.5-3.49,16.4,16.4,0,0,0,3.65-3.36,8.087,8.087,0,0,0,1.1-1.72,6.447,6.447,0,0,0,.56-1.99,2.905,2.905,0,0,1,.03-.4v-.24a2.078,2.078,0,0,0-.59-1.56,4.771,4.771,0,0,0-2.58-1.53,10.8,10.8,0,0,0-1.16-.21c-.18-.04-.36-.07-.54-.11A13.625,13.625,0,0,0,203.25,33.74Z"/>
      <path id="Path_7" data-name="Path 7" class="cls-2" d="M270.82,22.62q-3.54.165-7.14.48c-.21.02-.43.04-.64.05q-5.055.435-10.15,1.05-6.84.81-13.7,1.91c-3.29.5-6.58,1.07-9.87,1.69s-6.57,1.35-9.84,2.18c-1.59.41-3.18.86-4.75,1.34-.32.11-.65.21-.99.32a14.848,14.848,0,0,0-3.22,1.37,6.036,6.036,0,0,0-.86.56,3.335,3.335,0,0,1-.32.24.341.341,0,0,0-.13.28.465.465,0,0,0,.08.28,4.547,4.547,0,0,0,1.42.73.871.871,0,0,0,.19.05l.81.27c.43.14.86.3,1.29.46a.818.818,0,0,1,.56.75.337.337,0,0,1,0,.2.36.36,0,0,1-.11.2,1.2,1.2,0,0,1-.2.11.446.446,0,0,1-.2.05,12.367,12.367,0,0,1-3.87-1.24,2.759,2.759,0,0,1-1.53-2.39,1.514,1.514,0,0,1,.46-1.21,5.4,5.4,0,0,1,1.32-1.07c.9-.48,1.82-.92,2.77-1.32a23.309,23.309,0,0,1,2.69-.97c.91-.27,1.83-.53,2.74-.78h.05c2.96-.81,5.91-1.49,8.86-2.07q5.985-1.185,11.95-2.12,5.985-.915,11.92-1.56c2.51-.25,5.01-.47,7.52-.67,1.52-.11,3.05-.23,4.59-.38.91-.07,1.83-.12,2.74-.13.39-.02.79-.03,1.18-.03.72-.04,1.43-.06,2.15-.08q3.84-.165,7.68-.3a11.8,11.8,0,0,1,2.15.08,1.042,1.042,0,0,1,.94.91.4.4,0,0,1-.07.2,1.136,1.136,0,0,1-.15.23.224.224,0,0,1-.16.11,12.5,12.5,0,0,0-2.74-.03,16.811,16.811,0,0,1-2.36.05C272.85,22.51,271.84,22.57,270.82,22.62Zm-61.5,51.8h-.13a.968.968,0,0,1-.36-.62.925.925,0,0,1,.15-.7c.11-.18.22-.36.35-.54a.091.091,0,0,0,.03-.05q4.08-5.985,8.27-11.92t8.57-11.74q3.735-4.89,7.57-9.72c.38-.47.74-.93,1.1-1.4,1.2-1.52,2.41-3.03,3.62-4.51l1.5-1.83c.29-.38.59-.74.91-1.1a.8.8,0,0,1,.68-.34.623.623,0,0,1,.52.39,1.766,1.766,0,0,1-.13,1.48,8.586,8.586,0,0,1-.81,1.15c-.38.48-.74.96-1.1,1.42-1.4,1.79-2.8,3.58-4.22,5.37q-5,6.255-9.92,12.57t-9.65,12.78c-1.24,1.7-2.45,3.41-3.65,5.13-.72,1-1.43,2-2.15,3.01-.23.3-.48.61-.75.91a1.273,1.273,0,0,1-.13.19c-.02.02-.04.03-.05.04a.172.172,0,0,1-.08.01h-.08A.074.074,0,0,1,209.32,74.42Z"/>
    </g>
  </g>
</svg>
